<svg width="30" height="30" viewBox="0 0 30 30" fill="none" xmlns="http://www.w3.org/2000/svg">
<mask id="mask0_399049_4167" style="mask-type:alpha" maskUnits="userSpaceOnUse" x="0" y="0" width="30" height="30">
<rect width="30" height="30" fill="#D9D9D9"/>
</mask>
<g mask="url(#mask0_399049_4167)">
<path d="M4.62652 27.2024C3.95579 27.2024 3.38161 26.9636 2.90396 26.486C2.42632 26.0083 2.1875 25.4341 2.1875 24.7634V7.69023C2.1875 7.0195 2.42632 6.44531 2.90396 5.96767C3.38161 5.49003 3.95579 5.2512 4.62652 5.2512H15.5107L13.0716 7.69023H4.62652V24.7634H21.6997V16.2878L24.1387 13.8488V24.7634C24.1387 25.4341 23.8999 26.0083 23.4223 26.486C22.9446 26.9636 22.3704 27.2024 21.6997 27.2024H4.62652ZM18.2546 5.95242L19.9924 7.65974L11.9436 15.7085V17.4463H13.6509L21.7302 9.36706L23.468 11.0744L15.3887 19.1536C15.1651 19.3772 14.906 19.5551 14.6113 19.6872C14.3166 19.8193 14.0066 19.8854 13.6814 19.8854H10.7241C10.3786 19.8854 10.0889 19.7685 9.85518 19.5347C9.62144 19.301 9.50457 19.0114 9.50457 18.6658V15.7085C9.50457 15.3833 9.56555 15.0734 9.6875 14.7786C9.80945 14.4839 9.98222 14.2248 10.2058 14.0012L18.2546 5.95242ZM23.468 11.0744L18.2546 5.95242L21.3034 2.90364C21.7912 2.41584 22.3755 2.17194 23.0564 2.17194C23.7373 2.17194 24.3115 2.41584 24.779 2.90364L26.4863 4.64145C26.9538 5.10893 27.1875 5.67803 27.1875 6.34877C27.1875 7.0195 26.9538 7.5886 26.4863 8.05608L23.468 11.0744Z" fill="#CDCDCD"/>
</g>
</svg>
