<svg width="30" height="30" viewBox="0 0 30 30" fill="none" xmlns="http://www.w3.org/2000/svg">
<path d="M25.2273 2.50012H4.77273H4.5C3.39543 2.50012 2.5 3.39585 2.5 4.50042C2.5 4.68021 2.5 4.80759 2.5 4.84009V25.2946V25.5001C2.5 26.6047 3.39572 27.5001 4.50029 27.5001C4.64377 27.5001 4.74401 27.5001 4.77272 27.5001H25.2273C25.256 27.5001 25.3562 27.5001 25.4997 27.5001C26.6043 27.5001 27.5 26.6042 27.5 25.4996C27.5 25.3928 27.5 25.3189 27.5 25.2946V4.84006C27.5 4.80756 27.5 4.6802 27.5 4.50042C27.5 3.39585 26.6043 2.50012 25.4997 2.50012C25.3562 2.50012 25.256 2.50012 25.2273 2.50012ZM17.2727 25.2946H4.77273V16.2037H17.2727V25.2946ZM17.2727 13.931H4.77273V4.84009L17.2727 4.84006V13.931ZM25.2273 25.2946H19.5455V4.84009H25.2273V25.2946Z" fill="#CDCDCD"/>
</svg>
